<?xml version="1.0" encoding="UTF-8" standalone="no"?>
<svg
   xmlns:dc="http://purl.org/dc/elements/1.1/"
   xmlns:cc="http://creativecommons.org/ns#"
   xmlns:rdf="http://www.w3.org/1999/02/22-rdf-syntax-ns#"
   xmlns:svg="http://www.w3.org/2000/svg"
   xmlns="http://www.w3.org/2000/svg"
   xmlns:sodipodi="http://sodipodi.sourceforge.net/DTD/sodipodi-0.dtd"
   xmlns:inkscape="http://www.inkscape.org/namespaces/inkscape"
   width="60"
   height="60"
   viewBox="0 2 1080 1080"
   id="svg2"
   version="1.1"
   inkscape:version="0.91 r13725"
   sodipodi:docname="Valknut1.svg"
   inkscape:export-filename="Valknut1.png"
   inkscape:export-xdpi="90"
   inkscape:export-ydpi="90">
  <defs
     id="defs10" />
  <sodipodi:namedview
     pagecolor="#ffffff"
     bordercolor="#666666"
     borderopacity="1"
     objecttolerance="10"
     gridtolerance="10"
     guidetolerance="10"
     inkscape:pageopacity="0"
     inkscape:pageshadow="2"
     inkscape:window-width="1366"
     inkscape:window-height="715"
     id="namedview8"
     showgrid="false"
     inkscape:zoom="0.52685185"
     inkscape:cx="540"
     inkscape:cy="540"
     inkscape:window-x="-8"
     inkscape:window-y="-8"
     inkscape:window-maximized="1"
     inkscape:current-layer="svg2" />
  <metadata
     id="metadata4">
    <rdf:RDF>
      <cc:Work
         rdf:about="">
        <dc:format>image/svg+xml</dc:format>
        <dc:type
           rdf:resource="http://purl.org/dc/dcmitype/StillImage" />
        <dc:title />
      </cc:Work>
    </rdf:RDF>
  </metadata>
  <g
     id="g4721"
     transform="translate(0.00878905,-0.3681765)">
    <path
       inkscape:connector-curvature="0"
       id="path4686"
       d="M 3.3404278,48.859502 C 48.494458,128.40306 93.640189,207.95133 138.79103,287.4967 c -45.409784,0 -90.819565,0 -136.2293456,0 C 146.79332,537.45489 291.02815,787.41123 435.26194,1037.3682 481.82405,958.03124 528.38301,878.69245 574.94391,799.35481 597.6074,838.92855 620.2716,878.50189 642.93464,918.07589 787.7851,667.72854 932.63874,417.38301 1077.491,167.03668 c -92.20985,0 -184.41969,0 -276.62954,0 23.27458,-39.88944 46.54821,-79.77944 69.82341,-119.668527 -289.39781,0 -578.79563,0 -868.1934481,0 l 0.4939511,0.867666 0.3550548,0.623683 z"
       style="fill:black;fill-opacity:1" />
    <path
       id="path4143"
       d="m 27.887745,61.441438 128.244085,226.268412 123.48042,0 -64.20505,-120.23105 444.06037,0 -66.05467,120.23105 119.54097,0 131.86324,-226.268412 -816.929365,0 z M 239.90524,181.3344 435.30555,525.85811 497.27428,421.17699 421.80361,287.70985 l 155.13665,0 59.46677,-106.37545 -396.50179,0 z m 553.30837,0 -61.54099,106.37545 134.68745,0 -223.29288,387.3471 -70.1035,-117.13553 -59.87302,103.52615 129.97652,227.24358 408.82011,-707.35675 -258.67369,0 z M 28.112354,302.01883 435.30555,1008.4414 566.3133,784.92461 504.37193,678.04302 435.30555,792.94094 212.57712,407.17482 l 136.70697,0 -59.66793,-105.15599 -261.503806,0 z m 417.601396,0 59.07028,105.15599 152.59174,0 -76.24606,136.43371 61.93748,104.36842 198.02334,-345.95812 -395.37678,0 z m -209.32218,119.15816 198.91398,343.01308 199.02531,-343.01308 -120.73042,0 -78.29489,131.8041 -77.71676,-131.8041 -121.19722,0 z"
       inkscape:connector-curvature="0" fill='white'/>
  </g>
</svg>
